<svg width="718" height="378" xmlns="http://www.w3.org/2000/svg" xmlns:xlink="http://www.w3.org/1999/xlink" overflow="hidden"><defs><clipPath id="clip0"><rect x="0" y="0" width="718" height="378"/></clipPath></defs><g clip-path="url(#clip0)"><rect x="0" y="0" width="718" height="378.088" fill="#FFFFFF"/><path d="M4.99999 287.567C4.99999 241.993 164.61 205.048 361.5 205.048 558.39 205.048 718 241.993 718 287.567 718 333.141 558.39 370.086 361.5 370.086 164.61 370.086 4.99999 333.141 4.99999 287.567Z" fill="#002060" fill-rule="evenodd" fill-opacity="0.231373"/><text font-family="Bahnschrift Condensed,Bahnschrift Condensed_MSFontService,sans-serif" font-weight="400" font-stretch="condensed" font-size="88" transform="matrix(1 0 0 1.00023 36.373 321)">Principal</text><text font-family="Bahnschrift Condensed,Bahnschrift Condensed_MSFontService,sans-serif" font-weight="400" font-stretch="condensed" font-size="88" transform="matrix(1 0 0 1.00023 414.661 321)">Analysis</text><text font-family="Bahnschrift Condensed,Bahnschrift Condensed_MSFontService,sans-serif" font-weight="400" font-stretch="condensed" font-size="88" transform="matrix(-1.83697e-16 -1.00046 0.999768 -1.8374e-16 404.715 333)">Com</text><text fill="#44546A" font-family="Bahnschrift Condensed,Bahnschrift Condensed_MSFontService,sans-serif" font-weight="400" font-stretch="condensed" font-size="88" transform="matrix(-1.83697e-16 -1.00046 0.999768 -1.8374e-16 404.715 208)">ponent</text></g></svg>